<mxfile host="app.diagrams.net" modified="2023-08-30T06:07:35.123Z" agent="Mozilla/5.0 (Macintosh; Intel Mac OS X 10_15_7) AppleWebKit/537.36 (KHTML, like Gecko) Chrome/114.0.0.0 Safari/537.36" etag="WG9mJ1ckPUzZFr-jy0tp" version="21.6.9" type="device">
  <diagram name="第 1 页" id="oDbrAfxZTWpyG31IkNd3">
    <mxGraphModel dx="954" dy="559" grid="1" gridSize="10" guides="1" tooltips="1" connect="1" arrows="1" fold="1" page="1" pageScale="1" pageWidth="827" pageHeight="1169" math="0" shadow="0">
      <root>
        <mxCell id="0" />
        <mxCell id="1" parent="0" />
        <mxCell id="jbDA9jeIjB5osrtWJwYE-1" value="FreeSWITCH&lt;br&gt;127.0.0.1" style="rounded=1;whiteSpace=wrap;html=1;fillColor=#ffe6cc;strokeColor=#d79b00;" vertex="1" parent="1">
          <mxGeometry x="50" y="197" width="120" height="60" as="geometry" />
        </mxCell>
        <mxCell id="jbDA9jeIjB5osrtWJwYE-2" value="OpenSIPS&lt;br&gt;127.0.0.2" style="rounded=1;whiteSpace=wrap;html=1;fillColor=#e1d5e7;strokeColor=#9673a6;" vertex="1" parent="1">
          <mxGeometry x="360" y="197" width="120" height="60" as="geometry" />
        </mxCell>
        <mxCell id="jbDA9jeIjB5osrtWJwYE-3" value="SIP 终端&lt;br&gt;127.0.0.4" style="rounded=1;whiteSpace=wrap;html=1;fillColor=#fff2cc;strokeColor=#d6b656;" vertex="1" parent="1">
          <mxGeometry x="680" y="197" width="120" height="60" as="geometry" />
        </mxCell>
        <mxCell id="jbDA9jeIjB5osrtWJwYE-4" value="RTPEngine&lt;br&gt;127.0.0.3" style="rounded=1;whiteSpace=wrap;html=1;fillColor=#f9f7ed;strokeColor=#36393d;" vertex="1" parent="1">
          <mxGeometry x="360" y="30" width="120" height="60" as="geometry" />
        </mxCell>
        <mxCell id="jbDA9jeIjB5osrtWJwYE-5" value="" style="endArrow=classic;html=1;rounded=0;exitX=1;exitY=0.25;exitDx=0;exitDy=0;entryX=0;entryY=0.25;entryDx=0;entryDy=0;" edge="1" parent="1" source="jbDA9jeIjB5osrtWJwYE-1" target="jbDA9jeIjB5osrtWJwYE-2">
          <mxGeometry width="50" height="50" relative="1" as="geometry">
            <mxPoint x="280" y="357" as="sourcePoint" />
            <mxPoint x="330" y="307" as="targetPoint" />
          </mxGeometry>
        </mxCell>
        <mxCell id="jbDA9jeIjB5osrtWJwYE-6" value="1.INVITE&lt;br&gt;sdp:&lt;font color=&quot;#ff3333&quot;&gt;127.0.0.1:1000&lt;/font&gt;" style="text;html=1;align=left;verticalAlign=middle;resizable=0;points=[];autosize=1;strokeColor=none;fillColor=none;" vertex="1" parent="1">
          <mxGeometry x="190" y="170" width="130" height="40" as="geometry" />
        </mxCell>
        <mxCell id="jbDA9jeIjB5osrtWJwYE-8" value="" style="endArrow=classic;startArrow=classic;html=1;rounded=0;entryX=0.25;entryY=1;entryDx=0;entryDy=0;exitX=0.25;exitY=0;exitDx=0;exitDy=0;" edge="1" parent="1" source="jbDA9jeIjB5osrtWJwYE-2" target="jbDA9jeIjB5osrtWJwYE-4">
          <mxGeometry width="50" height="50" relative="1" as="geometry">
            <mxPoint x="380" y="170" as="sourcePoint" />
            <mxPoint x="430" y="120" as="targetPoint" />
          </mxGeometry>
        </mxCell>
        <mxCell id="jbDA9jeIjB5osrtWJwYE-9" value="2.offer" style="edgeLabel;html=1;align=center;verticalAlign=middle;resizable=0;points=[];" vertex="1" connectable="0" parent="jbDA9jeIjB5osrtWJwYE-8">
          <mxGeometry x="-0.0515" y="1" relative="1" as="geometry">
            <mxPoint as="offset" />
          </mxGeometry>
        </mxCell>
        <mxCell id="jbDA9jeIjB5osrtWJwYE-10" value="sdp:&lt;br&gt;&lt;font color=&quot;#ff3333&quot;&gt;127.0.0.1:1000&lt;/font&gt;&lt;br&gt;|&lt;br&gt;v&lt;br&gt;&lt;font color=&quot;#009900&quot;&gt;127.0.0.3:3000&lt;/font&gt;" style="text;html=1;align=center;verticalAlign=middle;resizable=0;points=[];autosize=1;strokeColor=none;fillColor=none;" vertex="1" parent="1">
          <mxGeometry x="290" y="100" width="100" height="90" as="geometry" />
        </mxCell>
        <mxCell id="jbDA9jeIjB5osrtWJwYE-14" value="3.INVITE&lt;br&gt;sdp:&lt;font color=&quot;#009900&quot;&gt;127.0.0.3:3000&lt;/font&gt;" style="text;html=1;align=left;verticalAlign=middle;resizable=0;points=[];autosize=1;strokeColor=none;fillColor=none;" vertex="1" parent="1">
          <mxGeometry x="540" y="170" width="130" height="40" as="geometry" />
        </mxCell>
        <mxCell id="jbDA9jeIjB5osrtWJwYE-15" value="" style="endArrow=classic;html=1;rounded=0;exitX=1;exitY=0.25;exitDx=0;exitDy=0;entryX=0;entryY=0.25;entryDx=0;entryDy=0;" edge="1" parent="1" source="jbDA9jeIjB5osrtWJwYE-2" target="jbDA9jeIjB5osrtWJwYE-3">
          <mxGeometry width="50" height="50" relative="1" as="geometry">
            <mxPoint x="480" y="220" as="sourcePoint" />
            <mxPoint x="530" y="170" as="targetPoint" />
          </mxGeometry>
        </mxCell>
        <mxCell id="jbDA9jeIjB5osrtWJwYE-16" value="" style="endArrow=classic;html=1;rounded=0;entryX=1;entryY=1;entryDx=0;entryDy=0;exitX=0;exitY=1;exitDx=0;exitDy=0;" edge="1" parent="1" source="jbDA9jeIjB5osrtWJwYE-3" target="jbDA9jeIjB5osrtWJwYE-2">
          <mxGeometry width="50" height="50" relative="1" as="geometry">
            <mxPoint x="630" y="370" as="sourcePoint" />
            <mxPoint x="680" y="320" as="targetPoint" />
          </mxGeometry>
        </mxCell>
        <mxCell id="jbDA9jeIjB5osrtWJwYE-17" value="4.200&lt;br&gt;sdp:&lt;font color=&quot;#3333ff&quot;&gt;127.0.0.4:4000&lt;/font&gt;" style="text;html=1;align=left;verticalAlign=middle;resizable=0;points=[];autosize=1;strokeColor=none;fillColor=none;" vertex="1" parent="1">
          <mxGeometry x="520" y="257" width="130" height="40" as="geometry" />
        </mxCell>
        <mxCell id="jbDA9jeIjB5osrtWJwYE-18" value="" style="endArrow=classic;startArrow=classic;html=1;rounded=0;entryX=0.617;entryY=1.05;entryDx=0;entryDy=0;entryPerimeter=0;exitX=0.625;exitY=0.017;exitDx=0;exitDy=0;exitPerimeter=0;" edge="1" parent="1" source="jbDA9jeIjB5osrtWJwYE-2" target="jbDA9jeIjB5osrtWJwYE-4">
          <mxGeometry width="50" height="50" relative="1" as="geometry">
            <mxPoint x="430" y="180" as="sourcePoint" />
            <mxPoint x="480" y="130" as="targetPoint" />
          </mxGeometry>
        </mxCell>
        <mxCell id="jbDA9jeIjB5osrtWJwYE-19" value="5.answer" style="edgeLabel;html=1;align=center;verticalAlign=middle;resizable=0;points=[];" vertex="1" connectable="0" parent="jbDA9jeIjB5osrtWJwYE-18">
          <mxGeometry x="-0.074" y="-2" relative="1" as="geometry">
            <mxPoint x="3" y="-4" as="offset" />
          </mxGeometry>
        </mxCell>
        <mxCell id="jbDA9jeIjB5osrtWJwYE-20" value="sdp:&lt;br&gt;&lt;font color=&quot;#3333ff&quot;&gt;127.0.0.4:4000&lt;/font&gt;&lt;br&gt;|&lt;br&gt;v&lt;br&gt;&lt;font color=&quot;#009900&quot;&gt;127.0.0.3:3001&lt;/font&gt;" style="text;html=1;align=center;verticalAlign=middle;resizable=0;points=[];autosize=1;strokeColor=none;fillColor=none;" vertex="1" parent="1">
          <mxGeometry x="450" y="100" width="100" height="90" as="geometry" />
        </mxCell>
        <mxCell id="jbDA9jeIjB5osrtWJwYE-21" value="" style="endArrow=classic;html=1;rounded=0;entryX=1;entryY=1;entryDx=0;entryDy=0;exitX=0;exitY=1;exitDx=0;exitDy=0;" edge="1" parent="1" source="jbDA9jeIjB5osrtWJwYE-2" target="jbDA9jeIjB5osrtWJwYE-1">
          <mxGeometry width="50" height="50" relative="1" as="geometry">
            <mxPoint x="260" y="360" as="sourcePoint" />
            <mxPoint x="310" y="310" as="targetPoint" />
          </mxGeometry>
        </mxCell>
        <mxCell id="jbDA9jeIjB5osrtWJwYE-22" value="6.200&lt;br&gt;sdp:&lt;font color=&quot;#009900&quot;&gt;127.0.0.3:3001&lt;/font&gt;" style="text;html=1;align=left;verticalAlign=middle;resizable=0;points=[];autosize=1;strokeColor=none;fillColor=none;" vertex="1" parent="1">
          <mxGeometry x="200" y="257" width="130" height="40" as="geometry" />
        </mxCell>
        <mxCell id="jbDA9jeIjB5osrtWJwYE-23" value="" style="endArrow=classic;startArrow=classic;html=1;rounded=0;exitX=0.5;exitY=0;exitDx=0;exitDy=0;entryX=0;entryY=0.5;entryDx=0;entryDy=0;dashed=1;" edge="1" parent="1" source="jbDA9jeIjB5osrtWJwYE-1" target="jbDA9jeIjB5osrtWJwYE-4">
          <mxGeometry width="50" height="50" relative="1" as="geometry">
            <mxPoint x="120" y="170" as="sourcePoint" />
            <mxPoint x="170" y="120" as="targetPoint" />
          </mxGeometry>
        </mxCell>
        <mxCell id="jbDA9jeIjB5osrtWJwYE-24" value="" style="endArrow=classic;startArrow=classic;html=1;rounded=0;exitX=1;exitY=0.5;exitDx=0;exitDy=0;entryX=0.35;entryY=-0.017;entryDx=0;entryDy=0;entryPerimeter=0;dashed=1;" edge="1" parent="1" source="jbDA9jeIjB5osrtWJwYE-4" target="jbDA9jeIjB5osrtWJwYE-3">
          <mxGeometry width="50" height="50" relative="1" as="geometry">
            <mxPoint x="670" y="80" as="sourcePoint" />
            <mxPoint x="720" y="30" as="targetPoint" />
          </mxGeometry>
        </mxCell>
      </root>
    </mxGraphModel>
  </diagram>
</mxfile>
